<?xml version="1.0" encoding="UTF-8" standalone="no"?>
<!DOCTYPE svg PUBLIC "-//W3C//DTD SVG 1.1//EN"
 "http://www.w3.org/Graphics/SVG/1.1/DTD/svg11.dtd">
<!-- Generated by graphviz version 2.40.1 (20161225.0304)
 -->
<!-- Title: dependencies Pages: 1 -->
<svg width="1325pt" height="284pt"
 viewBox="0.00 0.00 1325.00 284.00" xmlns="http://www.w3.org/2000/svg" xmlns:xlink="http://www.w3.org/1999/xlink">
<g id="graph0" class="graph" transform="scale(1 1) rotate(0) translate(4 280)">
<title>dependencies</title>
<polygon fill="#ffffff" stroke="transparent" points="-4,4 -4,-280 1321,-280 1321,4 -4,4"/>
<text text-anchor="start" x="637.5091" y="-42.4" font-family="sans-serif" font-weight="bold" font-size="14.00" fill="#000000">Legend</text>
<polygon fill="#ffffb3" stroke="transparent" points="424.5,-10 424.5,-30 444.5,-30 444.5,-10 424.5,-10"/>
<text text-anchor="start" x="448.129" y="-15.4" font-family="sans-serif" font-size="14.00" fill="#000000"> &#160;Declarations</text>
<polygon fill="#8dd3c7" stroke="transparent" points="537.5,-10 537.5,-30 557.5,-30 557.5,-10 537.5,-10"/>
<text text-anchor="start" x="561.2251" y="-15.4" font-family="sans-serif" font-size="14.00" fill="#000000"> &#160;Module</text>
<polygon fill="#80b1d3" stroke="transparent" points="623.5,-10 623.5,-30 643.5,-30 643.5,-10 623.5,-10"/>
<text text-anchor="start" x="647.2812" y="-15.4" font-family="sans-serif" font-size="14.00" fill="#000000"> &#160;Bootstrap</text>
<polygon fill="#fdb462" stroke="transparent" points="720.5,-10 720.5,-30 740.5,-30 740.5,-10 720.5,-10"/>
<text text-anchor="start" x="744.1732" y="-15.4" font-family="sans-serif" font-size="14.00" fill="#000000"> &#160;Providers</text>
<polygon fill="#fb8072" stroke="transparent" points="816.5,-10 816.5,-30 836.5,-30 836.5,-10 816.5,-10"/>
<text text-anchor="start" x="840.2258" y="-15.4" font-family="sans-serif" font-size="14.00" fill="#000000"> &#160;Exports</text>
<g id="clust1" class="cluster">
<title>cluster_MdKeyboardModule</title>
<polygon fill="none" stroke="#000000" stroke-dasharray="1,5" points="8,-70 8,-268 1309,-268 1309,-70 8,-70"/>
</g>
<g id="clust2" class="cluster">
<title>cluster_MdKeyboardModule_declarations</title>
<polygon fill="none" stroke="#000000" points="222,-78 222,-130 1301,-130 1301,-78 222,-78"/>
</g>
<g id="clust10" class="cluster">
<title>cluster_MdKeyboardModule_exports</title>
<polygon fill="none" stroke="#000000" points="214,-208 214,-260 1188,-260 1188,-208 214,-208"/>
</g>
<g id="clust12" class="cluster">
<title>cluster_MdKeyboardModule_providers</title>
<polygon fill="none" stroke="#000000" points="16,-78 16,-130 214,-130 214,-78 16,-78"/>
</g>
<!-- KebabCasePipe -->
<g id="node1" class="node">
<title>KebabCasePipe</title>
<polygon fill="#ffffb3" stroke="#000000" points="1293.1346,-122 1188.8654,-122 1188.8654,-86 1293.1346,-86 1293.1346,-122"/>
<text text-anchor="middle" x="1241" y="-99.8" font-family="Times,serif" font-size="14.00" fill="#000000">KebabCasePipe</text>
</g>
<!-- MdKeyboardModule -->
<g id="node7" class="node">
<title>MdKeyboardModule</title>
<polygon fill="#8dd3c7" stroke="#000000" points="745.1909,-187 742.1909,-191 721.1909,-191 718.1909,-187 610.8091,-187 610.8091,-151 745.1909,-151 745.1909,-187"/>
<text text-anchor="middle" x="678" y="-164.8" font-family="Times,serif" font-size="14.00" fill="#000000">MdKeyboardModule</text>
</g>
<!-- KebabCasePipe&#45;&gt;MdKeyboardModule -->
<g id="edge1" class="edge">
<title>KebabCasePipe&#45;&gt;MdKeyboardModule</title>
<path fill="none" stroke="#000000" d="M1241,-122.1061C1241,-141.3391 1241,-169 1241,-169 1241,-169 755.3517,-169 755.3517,-169"/>
<polygon fill="#000000" stroke="#000000" points="755.3518,-165.5001 745.3517,-169 755.3517,-172.5001 755.3518,-165.5001"/>
</g>
<!-- MdKeyboardComponent -->
<g id="node2" class="node">
<title>MdKeyboardComponent</title>
<polygon fill="#ffffb3" stroke="#000000" points="1170.9734,-122 1015.0266,-122 1015.0266,-86 1170.9734,-86 1170.9734,-122"/>
<text text-anchor="middle" x="1093" y="-99.8" font-family="Times,serif" font-size="14.00" fill="#000000">MdKeyboardComponent</text>
</g>
<!-- MdKeyboardComponent&#45;&gt;MdKeyboardModule -->
<g id="edge2" class="edge">
<title>MdKeyboardComponent&#45;&gt;MdKeyboardModule</title>
<path fill="none" stroke="#000000" d="M1120.7456,-122.0225C1120.7456,-139.3734 1120.7456,-163 1120.7456,-163 1120.7456,-163 755.2435,-163 755.2435,-163"/>
<polygon fill="#000000" stroke="#000000" points="755.2436,-159.5001 745.2435,-163 755.2435,-166.5001 755.2436,-159.5001"/>
</g>
<!-- MdKeyboardContainerComponent -->
<g id="node3" class="node">
<title>MdKeyboardContainerComponent</title>
<polygon fill="#ffffb3" stroke="#000000" points="996.6811,-122 785.3189,-122 785.3189,-86 996.6811,-86 996.6811,-122"/>
<text text-anchor="middle" x="891" y="-99.8" font-family="Times,serif" font-size="14.00" fill="#000000">MdKeyboardContainerComponent</text>
</g>
<!-- MdKeyboardContainerComponent&#45;&gt;MdKeyboardModule -->
<g id="edge3" class="edge">
<title>MdKeyboardContainerComponent&#45;&gt;MdKeyboardModule</title>
<path fill="none" stroke="#000000" d="M926.9468,-122.2396C926.9468,-137.5706 926.9468,-157 926.9468,-157 926.9468,-157 755.3686,-157 755.3686,-157"/>
<polygon fill="#000000" stroke="#000000" points="755.3686,-153.5001 745.3686,-157 755.3686,-160.5001 755.3686,-153.5001"/>
</g>
<!-- MdKeyboardKeyComponent -->
<g id="node4" class="node">
<title>MdKeyboardKeyComponent</title>
<polygon fill="#ffffb3" stroke="#000000" points="767.7948,-122 588.2052,-122 588.2052,-86 767.7948,-86 767.7948,-122"/>
<text text-anchor="middle" x="678" y="-99.8" font-family="Times,serif" font-size="14.00" fill="#000000">MdKeyboardKeyComponent</text>
</g>
<!-- MdKeyboardKeyComponent&#45;&gt;MdKeyboardModule -->
<g id="edge4" class="edge">
<title>MdKeyboardKeyComponent&#45;&gt;MdKeyboardModule</title>
<path fill="none" stroke="#000000" d="M678,-122.1061C678,-122.1061 678,-140.991 678,-140.991"/>
<polygon fill="#000000" stroke="#000000" points="674.5001,-140.9909 678,-150.991 681.5001,-140.991 674.5001,-140.9909"/>
</g>
<!-- MdKeyboardDirective -->
<g id="node5" class="node">
<title>MdKeyboardDirective</title>
<polygon fill="#ffffb3" stroke="#000000" points="570.2241,-122 427.7759,-122 427.7759,-86 570.2241,-86 570.2241,-122"/>
<text text-anchor="middle" x="499" y="-99.8" font-family="Times,serif" font-size="14.00" fill="#000000">MdKeyboardDirective</text>
</g>
<!-- MdKeyboardDirective&#45;&gt;MdKeyboardModule -->
<g id="edge5" class="edge">
<title>MdKeyboardDirective&#45;&gt;MdKeyboardModule</title>
<path fill="none" stroke="#000000" d="M521.2873,-122.2396C521.2873,-137.5706 521.2873,-157 521.2873,-157 521.2873,-157 600.6302,-157 600.6302,-157"/>
<polygon fill="#000000" stroke="#000000" points="600.6303,-160.5001 610.6302,-157 600.6302,-153.5001 600.6303,-160.5001"/>
</g>
<!-- MdKeyboardModelDirective -->
<g id="node6" class="node">
<title>MdKeyboardModelDirective</title>
<polygon fill="#ffffb3" stroke="#000000" points="409.7738,-122 230.2262,-122 230.2262,-86 409.7738,-86 409.7738,-122"/>
<text text-anchor="middle" x="320" y="-99.8" font-family="Times,serif" font-size="14.00" fill="#000000">MdKeyboardModelDirective</text>
</g>
<!-- MdKeyboardModelDirective&#45;&gt;MdKeyboardModule -->
<g id="edge6" class="edge">
<title>MdKeyboardModelDirective&#45;&gt;MdKeyboardModule</title>
<path fill="none" stroke="#000000" d="M346.3789,-122.0225C346.3789,-139.3734 346.3789,-163 346.3789,-163 346.3789,-163 600.8915,-163 600.8915,-163"/>
<polygon fill="#000000" stroke="#000000" points="600.8916,-166.5001 610.8915,-163 600.8915,-159.5001 600.8916,-166.5001"/>
</g>
<!-- MdKeyboardComponent  -->
<g id="node8" class="node">
<title>MdKeyboardComponent </title>
<polygon fill="#fb8072" stroke="#000000" points="1179.9741,-252 1020.0259,-252 1020.0259,-216 1179.9741,-216 1179.9741,-252"/>
<text text-anchor="middle" x="1100" y="-229.8" font-family="Times,serif" font-size="14.00" fill="#000000">MdKeyboardComponent </text>
</g>
<!-- MdKeyboardModule&#45;&gt;MdKeyboardComponent  -->
<g id="edge7" class="edge">
<title>MdKeyboardModule&#45;&gt;MdKeyboardComponent </title>
<path fill="none" stroke="#000000" stroke-dasharray="5,2" d="M745.4739,-175C857.6967,-175 1070.5044,-175 1070.5044,-175 1070.5044,-175 1070.5044,-205.9775 1070.5044,-205.9775"/>
<polygon fill="#000000" stroke="#000000" points="1067.0045,-205.9774 1070.5044,-215.9775 1074.0045,-205.9775 1067.0045,-205.9774"/>
</g>
<!-- MdKeyboardContainerComponent  -->
<g id="node9" class="node">
<title>MdKeyboardContainerComponent </title>
<polygon fill="#fb8072" stroke="#000000" points="1002.1812,-252 787.8188,-252 787.8188,-216 1002.1812,-216 1002.1812,-252"/>
<text text-anchor="middle" x="895" y="-229.8" font-family="Times,serif" font-size="14.00" fill="#000000">MdKeyboardContainerComponent </text>
</g>
<!-- MdKeyboardModule&#45;&gt;MdKeyboardContainerComponent  -->
<g id="edge8" class="edge">
<title>MdKeyboardModule&#45;&gt;MdKeyboardContainerComponent </title>
<path fill="none" stroke="#000000" stroke-dasharray="5,2" d="M745.276,-181C796.154,-181 857.3032,-181 857.3032,-181 857.3032,-181 857.3032,-205.7604 857.3032,-205.7604"/>
<polygon fill="#000000" stroke="#000000" points="853.8033,-205.7604 857.3032,-215.7604 860.8033,-205.7604 853.8033,-205.7604"/>
</g>
<!-- MdKeyboardKeyComponent  -->
<g id="node10" class="node">
<title>MdKeyboardKeyComponent </title>
<polygon fill="#fb8072" stroke="#000000" points="769.2947,-252 586.7053,-252 586.7053,-216 769.2947,-216 769.2947,-252"/>
<text text-anchor="middle" x="678" y="-229.8" font-family="Times,serif" font-size="14.00" fill="#000000">MdKeyboardKeyComponent </text>
</g>
<!-- MdKeyboardModule&#45;&gt;MdKeyboardKeyComponent  -->
<g id="edge9" class="edge">
<title>MdKeyboardModule&#45;&gt;MdKeyboardKeyComponent </title>
<path fill="none" stroke="#000000" stroke-dasharray="5,2" d="M678,-187.1061C678,-187.1061 678,-205.991 678,-205.991"/>
<polygon fill="#000000" stroke="#000000" points="674.5001,-205.9909 678,-215.991 681.5001,-205.991 674.5001,-205.9909"/>
</g>
<!-- MdKeyboardDirective  -->
<g id="node11" class="node">
<title>MdKeyboardDirective </title>
<polygon fill="#fb8072" stroke="#000000" points="568.224,-252 421.776,-252 421.776,-216 568.224,-216 568.224,-252"/>
<text text-anchor="middle" x="495" y="-229.8" font-family="Times,serif" font-size="14.00" fill="#000000">MdKeyboardDirective </text>
</g>
<!-- MdKeyboardModule&#45;&gt;MdKeyboardDirective  -->
<g id="edge10" class="edge">
<title>MdKeyboardModule&#45;&gt;MdKeyboardDirective </title>
<path fill="none" stroke="#000000" stroke-dasharray="5,2" d="M610.7902,-181C551.5043,-181 474.4627,-181 474.4627,-181 474.4627,-181 474.4627,-205.7604 474.4627,-205.7604"/>
<polygon fill="#000000" stroke="#000000" points="470.9628,-205.7604 474.4627,-215.7604 477.9628,-205.7604 470.9628,-205.7604"/>
</g>
<!-- MdKeyboardModelDirective  -->
<g id="node12" class="node">
<title>MdKeyboardModelDirective </title>
<polygon fill="#fb8072" stroke="#000000" points="404.2737,-252 221.7263,-252 221.7263,-216 404.2737,-216 404.2737,-252"/>
<text text-anchor="middle" x="313" y="-229.8" font-family="Times,serif" font-size="14.00" fill="#000000">MdKeyboardModelDirective </text>
</g>
<!-- MdKeyboardModule&#45;&gt;MdKeyboardModelDirective  -->
<g id="edge11" class="edge">
<title>MdKeyboardModule&#45;&gt;MdKeyboardModelDirective </title>
<path fill="none" stroke="#000000" stroke-dasharray="5,2" d="M610.5766,-175C499.0598,-175 288.3711,-175 288.3711,-175 288.3711,-175 288.3711,-205.9775 288.3711,-205.9775"/>
<polygon fill="#000000" stroke="#000000" points="284.8712,-205.9774 288.3711,-215.9775 291.8712,-205.9775 284.8712,-205.9774"/>
</g>
<!-- MdKeyboardService -->
<g id="node13" class="node">
<title>MdKeyboardService</title>
<ellipse fill="#fdb462" stroke="#000000" cx="115" cy="-104" rx="91.4558" ry="18"/>
<text text-anchor="middle" x="115" y="-99.8" font-family="Times,serif" font-size="14.00" fill="#000000">MdKeyboardService</text>
</g>
<!-- MdKeyboardService&#45;&gt;MdKeyboardModule -->
<g id="edge12" class="edge">
<title>MdKeyboardService&#45;&gt;MdKeyboardModule</title>
<path fill="none" stroke="#000000" d="M115,-122.1061C115,-141.3391 115,-169 115,-169 115,-169 600.6483,-169 600.6483,-169"/>
<polygon fill="#000000" stroke="#000000" points="600.6483,-172.5001 610.6483,-169 600.6482,-165.5001 600.6483,-172.5001"/>
</g>
</g>
</svg>
